<?xml version="1.0" encoding="UTF-8" standalone="no"?>
<!-- Generator: Adobe Illustrator 13.0.2, SVG Export Plug-In . SVG Version: 6.00 Build 14948)  -->

<svg
   xmlns:dc="http://purl.org/dc/elements/1.1/"
   xmlns:cc="http://creativecommons.org/ns#"
   xmlns:rdf="http://www.w3.org/1999/02/22-rdf-syntax-ns#"
   xmlns:svg="http://www.w3.org/2000/svg"
   xmlns="http://www.w3.org/2000/svg"
   xmlns:sodipodi="http://sodipodi.sourceforge.net/DTD/sodipodi-0.dtd"
   xmlns:inkscape="http://www.inkscape.org/namespaces/inkscape"
   id="Layer_1"
   enable-background="new 0 0 276.285 286.559"
   sodipodi:docname="kitchen-knife-spoon-fork.svg"
   xml:space="preserve"
   viewBox="0 0 276.285 286.559"
   version="1.0"
   y="0px"
   x="0px"
   inkscape:version="0.48.5 r10040"
   width="100%"
   height="100%"><defs
   id="defs18"><filter
     id="filter3684"
     height="3.6493001"
     width="1.4083"
     color-interpolation-filters="sRGB"
     y="-1.3246"
     x="-0.20416"
     inkscape:collect="always"><feGaussianBlur
       id="feGaussianBlur3686"
       stdDeviation="14.221876"
       inkscape:collect="always" /></filter><filter
     id="filter3654"
     height="3.7567"
     width="1.4249001"
     color-interpolation-filters="sRGB"
     y="-1.3783"
     x="-0.21243"
     inkscape:collect="always"><feGaussianBlur
       id="feGaussianBlur3656"
       stdDeviation="14.798438"
       inkscape:collect="always" /></filter><filter
     id="filter3684-1"
     height="3.6493001"
     width="1.4083"
     color-interpolation-filters="sRGB"
     y="-1.3246"
     x="-0.20416"
     inkscape:collect="always"><feGaussianBlur
       id="feGaussianBlur3686-7"
       stdDeviation="14.221876"
       inkscape:collect="always" /></filter></defs><sodipodi:namedview
   id="namedview257"
   bordercolor="#666666"
   inkscape:pageshadow="2"
   guidetolerance="10"
   pagecolor="#ffffff"
   gridtolerance="10"
   inkscape:window-maximized="1"
   inkscape:zoom="1.164697"
   objecttolerance="10"
   borderopacity="1"
   inkscape:current-layer="g1370"
   inkscape:cx="-57.642026"
   inkscape:cy="252.02097"
   inkscape:window-y="-8"
   inkscape:window-x="1912"
   inkscape:window-width="1920"
   showgrid="false"
   inkscape:pageopacity="0"
   inkscape:window-height="1138" />
<g
   id="knife"
   inkscape:export-filename="C:\Users\alaing\git\diabetes-diary-android\DiabetesDiaryAndroid\res\drawable-hdpi\add_carbohydrates.png"
   inkscape:export-xdpi="22.431831"
   inkscape:export-ydpi="22.431831"
   transform="matrix(1,0,0,0.67299639,29.62144,99.963162)">
	<path
   id="path237"
   d="m 71.38036,174.0007 c -0.101,2.072 1.384,4.426 3.297,5.23 l 32.008,13.447 c 1.912,0.805 3.478,-0.236 3.478,-2.311 V 100.9907 93.447704 4.0727038 c 0,-2.074 -1.122,-3.77100003 -2.494,-3.77100003 -1.372,0 -3.614,0 -4.985,0 -1.371,0 -2.963,1.63000003 -3.541,3.62400003 -0.578,1.994 -17.97,62.0840002 -21.294,85.0820002 -3.57,24.562996 -6.49,84.992996 -6.49,84.992996 z"
   inkscape:connector-curvature="0"
   style="fill:#231f20" />
	<path
   id="path239"
   d="m 75.35036,282.4507 c -0.048,2.021 1.566,3.674 3.588,3.674 h 22.56 c 2.021,0 3.663,-1.652 3.649,-3.674 l -0.687,-101.07 c -0.015,-2.021 -1.68,-3.674 -3.7,-3.674 h -19.24 c -2.021,0 -3.715,1.652 -3.763,3.674 l -2.41,101.07 z"
   inkscape:connector-curvature="0"
   style="fill:#231f20" />
		
</g>

<g
   id="fork"
   inkscape:export-filename="C:\Users\alaing\git\diabetes-diary-android\DiabetesDiaryAndroid\res\drawable-hdpi\add_carbohydrates.png"
   inkscape:export-xdpi="22.431831"
   inkscape:export-ydpi="22.431831"
   transform="matrix(1,0,0,0.67299639,0,100.25208)">
	<path
   id="path251"
   d="m 45.476,281.86 c 0.009,2.584 -2.099,4.699 -4.684,4.699 H 20.279 c -2.585,0 -4.668,-2.115 -4.629,-4.699 l 2.56,-168.01 c 0.039,-2.584 2.186,-4.7 4.771,-4.7 H 40.17 c 2.585,0 4.708,2.116 4.717,4.7 l 0.589,168.01 z"
   inkscape:connector-curvature="0"
   style="fill:#231f20" />
	<path
   id="path253"
   d="m 57.017,0 c -2.109,0 -3.834,1.726 -3.834,3.833 v 51.469 c 0,2.109 -1.496,3.833 -3.326,3.833 -1.829,0 -3.326,-1.724 -3.326,-3.833 V 3.833 C 46.531,1.726 44.806,0 42.698,0 H 38.734 C 36.625,0 34.9,1.726 34.9,3.833 v 51.469 c 0,2.109 -1.495,3.833 -3.323,3.833 -1.828,0 -3.323,-1.724 -3.323,-3.833 V 3.833 C 28.253,1.726 26.528,0 24.42,0 h -3.968 c -2.108,0 -3.833,1.726 -3.833,3.833 v 51.469 c 0,2.109 -1.496,3.833 -3.324,3.833 -1.828,0 -3.324,-1.724 -3.324,-3.833 V 3.833 C 9.971,1.726 8.246,0 6.137,0 H 3.833 C 1.725,0 0,1.726 0,3.833 v 113.89 c 0,2.109 1.725,3.833 3.833,3.833 h 55.484 c 2.108,0 3.833,-1.725 3.833,-3.833 V 3.833 c 0.001,-2.104 -1.724,-3.83 -3.833,-3.83 h -2.3 z"
   inkscape:connector-curvature="0"
   style="fill:#231f20" />
		
</g>
<metadata
   id="metadata16"><rdf:RDF><cc:Work><dc:format>image/svg+xml</dc:format><dc:type
         rdf:resource="http://purl.org/dc/dcmitype/StillImage" /><cc:license
         rdf:resource="http://creativecommons.org/licenses/publicdomain/" /><dc:publisher><cc:Agent
           rdf:about="http://openclipart.org/"><dc:title>Openclipart</dc:title></cc:Agent></dc:publisher><dc:title>Kitchen Icon - Knife Spoon Fork</dc:title><dc:date>2012-05-07T12:03:37</dc:date><dc:description>Knife, spoon and fork tableware.</dc:description><dc:source>https://openclipart.org/detail/169913/kitchen-icon---knife-spoon-fork-by-studiofibonacci</dc:source><dc:creator><cc:Agent><dc:title>StudioFibonacci</dc:title></cc:Agent></dc:creator><dc:subject><rdf:Bag><rdf:li>fork</rdf:li><rdf:li>icon</rdf:li><rdf:li>kitchen</rdf:li><rdf:li>knife</rdf:li><rdf:li>silhouette</rdf:li><rdf:li>spoon</rdf:li></rdf:Bag></dc:subject></cc:Work><cc:License
       rdf:about="http://creativecommons.org/licenses/publicdomain/"><cc:permits
         rdf:resource="http://creativecommons.org/ns#Reproduction" /><cc:permits
         rdf:resource="http://creativecommons.org/ns#Distribution" /><cc:permits
         rdf:resource="http://creativecommons.org/ns#DerivativeWorks" /></cc:License></rdf:RDF></metadata><path
   id="path2824"
   sodipodi:rx="87.234589"
   sodipodi:ry="20.59931"
   style="opacity:0.54584997;fill:#6f6f6f;fill-opacity:1;stroke:#ffffff;filter:url(#filter3654)"
   sodipodi:type="arc"
   d="m 248.13135,353.55865 a 87.234589,20.59931 0 1 1 -174.46918,0 87.234589,20.59931 0 1 1 174.46918,0 z"
   transform="matrix(0.76966512,0,0,0.33667286,-48.083279,180.60905)"
   sodipodi:cy="353.55865"
   sodipodi:cx="160.89676"
   inkscape:export-filename="C:\Users\alaing\git\diabetes-diary-android\DiabetesDiaryAndroid\res\drawable-hdpi\add_carbohydrates.png"
   inkscape:export-xdpi="22.431831"
   inkscape:export-ydpi="22.431831" /><path
   id="path3658"
   sodipodi:rx="83.594406"
   sodipodi:ry="12.883725"
   style="fill:#6f6f6f;fill-opacity:0.43529412;filter:url(#filter3684)"
   sodipodi:type="arc"
   d="m 244.49117,353.55865 a 83.594406,12.883725 0 1 1 -167.188817,0 83.594406,12.883725 0 1 1 167.188817,0 z"
   transform="matrix(0.4786709,0,0,0.13165686,-48.328048,251.60598)"
   sodipodi:cy="353.55865"
   sodipodi:cx="160.89676"
   inkscape:export-filename="C:\Users\alaing\git\diabetes-diary-android\DiabetesDiaryAndroid\res\drawable-hdpi\add_carbohydrates.png"
   inkscape:export-xdpi="22.431831"
   inkscape:export-ydpi="22.431831" /><path
   id="path3688"
   sodipodi:rx="83.594406"
   sodipodi:ry="12.883725"
   style="opacity:0.94332;fill:#6f6f6f;fill-opacity:1;filter:url(#filter3684)"
   sodipodi:type="arc"
   d="m 244.49117,353.55865 a 83.594406,12.883725 0 1 1 -167.188817,0 83.594406,12.883725 0 1 1 167.188817,0 z"
   transform="matrix(0.27201492,0,0,0.07481682,-10.241849,271.70029)"
   sodipodi:cy="353.55865"
   sodipodi:cx="160.89676"
   inkscape:export-filename="C:\Users\alaing\git\diabetes-diary-android\DiabetesDiaryAndroid\res\drawable-hdpi\add_carbohydrates.png"
   inkscape:export-xdpi="22.431831"
   inkscape:export-ydpi="22.431831" /><path
   id="path3658-4"
   sodipodi:rx="83.594406"
   sodipodi:ry="12.883725"
   style="fill:#6f6f6f;fill-opacity:0.43529412;filter:url(#filter3684-1)"
   sodipodi:type="arc"
   d="m 244.49117,353.55865 a 83.594406,12.883725 0 1 1 -167.188817,0 83.594406,12.883725 0 1 1 167.188817,0 z"
   transform="matrix(0.4786709,0,0,0.13165686,41.898452,251.46837)"
   sodipodi:cy="353.55865"
   sodipodi:cx="160.89676"
   inkscape:export-filename="C:\Users\alaing\git\diabetes-diary-android\DiabetesDiaryAndroid\res\drawable-hdpi\add_carbohydrates.png"
   inkscape:export-xdpi="22.431831"
   inkscape:export-ydpi="22.431831" /><path
   id="path3688-0"
   sodipodi:rx="83.594406"
   sodipodi:ry="12.883725"
   style="opacity:0.94332;fill:#6f6f6f;fill-opacity:1;filter:url(#filter3684-1)"
   sodipodi:type="arc"
   d="m 244.49117,353.55865 a 83.594406,12.883725 0 1 1 -167.188817,0 83.594406,12.883725 0 1 1 167.188817,0 z"
   transform="matrix(0.27201492,0,0,0.07481682,79.984651,271.56269)"
   sodipodi:cy="353.55865"
   sodipodi:cx="160.89676"
   inkscape:export-filename="C:\Users\alaing\git\diabetes-diary-android\DiabetesDiaryAndroid\res\drawable-hdpi\add_carbohydrates.png"
   inkscape:export-xdpi="22.431831"
   inkscape:export-ydpi="22.431831" /><g
   id="g1370"
   transform="matrix(1.3029687,0,0,1.2574185,150.40693,75.032421)"
   style="fill:#46b2e3;fill-opacity:1"
   inkscape:export-filename="C:\Users\alaing\git\diabetes-diary-android\DiabetesDiaryAndroid\res\drawable-hdpi\add.png"
   inkscape:export-xdpi="14.171151"
   inkscape:export-ydpi="14.171151"><path
     id="path1349"
     style="fill:#46b2e3;fill-opacity:1"
     d="m 14.501,24.277551 c 0.05,0.583572 0.508,1.027431 1.053,1.022057 h 12.104 v 13.007315 c -0.002,0.300921 0.109,0.590021 0.307,0.802815 0.198,0.212793 0.467,0.331013 0.746,0.329938 h 6.579 c 0.28,0.0011 0.548,-0.117145 0.746,-0.329938 0.198,-0.212794 0.309,-0.501894 0.308,-0.802815 V 25.299608 h 12.103 c 0.28,0.0011 0.549,-0.117144 0.747,-0.329938 0.197,-0.212794 0.308,-0.501894 0.307,-0.802815 v -7.069496 c 0.001,-0.300922 -0.11,-0.59002 -0.307,-0.802815 -0.198,-0.212794 -0.467,-0.331013 -0.747,-0.329938 H 36.344 V 2.9572912 C 36.345,2.6563701 36.234,2.3672709 36.036,2.1544767 35.838,1.9416825 35.57,1.8234635 35.29,1.8245382 h -6.579 c -0.279,-0.00108 -0.548,0.1171443 -0.746,0.3299385 -0.198,0.2127942 -0.309,0.5018934 -0.307,0.8028145 V 15.964606 H 15.554 c -0.28,-0.0011 -0.548,0.117144 -0.746,0.329938 -0.198,0.212795 -0.309,0.501893 -0.307,0.802815 v 7.069496 c -0.002,0.03762 -0.002,0.07416 0,0.110696 z"
     inkscape:connector-curvature="0"
     inkscape:export-filename="C:\Users\alaing\git\diabetes-diary-android\DiabetesDiaryAndroid\res\drawable-hdpi\add_carbohydrates.png"
     inkscape:export-xdpi="22.431831"
     inkscape:export-ydpi="22.431831" /><path
     id="path1468"
     style="fill:#46b2e3;fill-opacity:1"
     d="m 15.43,17.272538 c -0.087,0.159058 -0.129,0.34176 -0.123,0.526612 v 5.665914 c 0.003,0.531986 0.404,0.962948 0.899,0.966172 h 12.26 v 13.17497 c 0.002,0.533061 0.403,0.964023 0.899,0.966172 h 5.271 c 0.496,-0.0022 0.897,-0.433111 0.899,-0.966172 v -13.17497 h 12.259 c 0.496,-0.0033 0.897,-0.434186 0.9,-0.966172 V 17.79915 c -0.003,-0.531985 -0.404,-0.962948 -0.9,-0.966172 H 35.535 V 3.6580075 C 35.533,3.1249473 35.132,2.6939853 34.636,2.6918358 h -5.271 c -0.496,0.00215 -0.897,0.4331115 -0.899,0.9661717 V 16.832978 h -12.26 c -0.312,-0.0075 -0.605,0.159058 -0.776,0.43956 z"
     inkscape:connector-curvature="0"
     inkscape:export-filename="C:\Users\alaing\git\diabetes-diary-android\DiabetesDiaryAndroid\res\drawable-hdpi\add_carbohydrates.png"
     inkscape:export-xdpi="22.431831"
     inkscape:export-ydpi="22.431831" /><path
     id="path1472"
     style="fill:#46b2e3;fill-opacity:1"
     d="m 15.981,17.689528 c -0.014,0.03439 -0.021,0.07201 -0.02,0.109622 v 5.665914 c 0.002,0.04729 0.016,0.09242 0.041,0.131116 0.022,0.04729 0.058,0.08598 0.102,0.110696 0.032,0.01505 0.067,0.02257 0.102,0.02149 H 28.71 c 0.113,-0.0033 0.232,0.03009 0.307,0.10962 0.074,0.08061 0.105,0.208496 0.102,0.32994 v 13.438275 c 0.002,0.04729 0.016,0.09243 0.041,0.132191 0.023,0.04729 0.058,0.08491 0.102,0.109621 0.032,0.01505 0.067,0.02257 0.102,0.02149 h 5.272 c 0.044,-0.0022 0.086,-0.01719 0.122,-0.04406 0.044,-0.02364 0.08,-0.06233 0.103,-0.109622 0.014,-0.03439 0.021,-0.07201 0.02,-0.109622 V 24.167931 c -0.003,-0.121444 0.028,-0.249335 0.102,-0.32994 0.075,-0.07953 0.194,-0.112844 0.307,-0.10962 h 12.504 c 0.044,-0.0022 0.086,-0.01719 0.123,-0.04407 0.044,-0.02472 0.079,-0.06233 0.102,-0.109622 0.014,-0.03439 0.021,-0.07201 0.02,-0.109621 v -5.665914 c -0.002,-0.04729 -0.016,-0.09243 -0.041,-0.131116 -0.022,-0.04729 -0.058,-0.08598 -0.102,-0.110696 -0.032,-0.01505 -0.067,-0.02257 -0.102,-0.02149 H 35.29 c -0.113,0.0033 -0.232,-0.03009 -0.307,-0.109622 -0.074,-0.08061 -0.105,-0.208495 -0.102,-0.329938 V 3.6580075 C 34.879,3.6107199 34.865,3.5655818 34.84,3.5258171 34.817,3.4785296 34.782,3.4409144 34.738,3.4161959 34.706,3.4011499 34.671,3.3936268 34.636,3.3947016 h -5.272 c -0.044,0.00215 -0.086,0.017195 -0.122,0.044063 -0.044,0.023644 -0.08,0.062334 -0.103,0.1096213 -0.014,0.034391 -0.021,0.072006 -0.02,0.1096213 V 17.096284 c 0.003,0.121443 -0.028,0.249335 -0.102,0.329938 -0.075,0.07953 -0.194,0.112846 -0.307,0.109622 H 16.206 c -0.044,0.0022 -0.086,0.0172 -0.123,0.04407 -0.044,0.02471 -0.079,0.06233 -0.102,0.10962 z"
     inkscape:connector-curvature="0"
     inkscape:export-filename="C:\Users\alaing\git\diabetes-diary-android\DiabetesDiaryAndroid\res\drawable-hdpi\add_carbohydrates.png"
     inkscape:export-xdpi="22.431831"
     inkscape:export-ydpi="22.431831" /></g></svg>