<?xml version="1.0" encoding="UTF-8" standalone="no"?>
<svg
   xmlns:dc="http://purl.org/dc/elements/1.1/"
   xmlns:cc="http://creativecommons.org/ns#"
   xmlns:rdf="http://www.w3.org/1999/02/22-rdf-syntax-ns#"
   xmlns:svg="http://www.w3.org/2000/svg"
   xmlns="http://www.w3.org/2000/svg"
   xmlns:sodipodi="http://sodipodi.sourceforge.net/DTD/sodipodi-0.dtd"
   xmlns:inkscape="http://www.inkscape.org/namespaces/inkscape"
   width="640"
   height="480"
   id="svg2"
   version="1.1"
   inkscape:version="0.48.5 r10040"
   sodipodi:docname="emergency-exit.svg">
  <defs
     id="defs16">
    <filter
       id="filter3684"
       height="3.6493001"
       width="1.4083"
       color-interpolation-filters="sRGB"
       y="-1.3246"
       x="-0.20416"
       inkscape:collect="always">
      <feGaussianBlur
         id="feGaussianBlur3686"
         stdDeviation="14.221876"
         inkscape:collect="always" />
    </filter>
    <filter
       id="filter3654"
       height="3.7567"
       width="1.4249001"
       color-interpolation-filters="sRGB"
       y="-1.3783"
       x="-0.21243"
       inkscape:collect="always">
      <feGaussianBlur
         id="feGaussianBlur3656"
         stdDeviation="14.798438"
         inkscape:collect="always" />
    </filter>
  </defs>
  <sodipodi:namedview
     pagecolor="#ffffff"
     bordercolor="#666666"
     borderopacity="1"
     objecttolerance="10"
     gridtolerance="10"
     guidetolerance="10"
     inkscape:pageopacity="0"
     inkscape:pageshadow="2"
     inkscape:window-width="1680"
     inkscape:window-height="1028"
     id="namedview14"
     showgrid="false"
     inkscape:zoom="0.2234375"
     inkscape:cx="-1194.8465"
     inkscape:cy="553.6607"
     inkscape:window-x="3832"
     inkscape:window-y="-8"
     inkscape:window-maximized="1"
     inkscape:current-layer="g7" />
  <title
     id="title4">emergency exit</title>
  <metadata
     id="metadata4">image/svg+xmlemergency exit sign symbol man run green door fire safety<rdf:RDF>
  <cc:Work
     rdf:about="">
    <dc:format>image/svg+xml</dc:format>
    <dc:type
       rdf:resource="http://purl.org/dc/dcmitype/StillImage" />
    <dc:title>emergency exit</dc:title>
  </cc:Work>
</rdf:RDF>
</metadata>
  <g
     id="g7"
     transform="matrix(-1,0,0,1,919.15055,-12.506483)"
     style="fill:#000000">
    <title
       id="title9">Layer 1</title>
    <path
       id="path17"
       d="m 361.27164,-45.307053 c 2.58488,6.710419 5.26569,13.512872 7.85338,20.223306 -12.06648,24.54254904 -24.42363,48.995886 -36.97555,73.262277 -12.45308,23.990112 -24.71428,48.443328 -36.87958,73.35425 -11.87459,24.36121 -23.75767,48.71689 -35.63231,72.89395 -12.25836,24.91091 -24.52236,49.45619 -36.68767,73.44367 -11.77863,22.89073 -23.27514,45.50255 -34.67285,67.93288 -12.54907,24.54269 -25.00215,48.80907 -37.45244,72.9888 -12.54905,24.17427 -24.71152,48.71421 -36.4958,73.5357 28.73837,0 57.47391,0.45768 86.20945,1.28631 29.88406,0.82864 51.72568,-5.60558 65.42042,-19.3947 9.39133,-9.37506 17.05005,-20.49691 22.89701,-33.27594 11.58956,-25.00021 23.56299,-49.54551 35.92014,-73.7226 12.54901,-24.26908 24.90623,-48.71685 37.07145,-73.26215 11.68556,-23.62461 23.563,-46.97303 35.72825,-70.22935 6.41423,-12.22659 12.74096,-24.81879 19.15797,-37.68996 11.97624,-24.17423 23.8508,-48.44332 35.63518,-72.89395 12.16244,-24.908152 24.61551,-49.272006 37.44961,-73.078089 2.8727,6.436958 4.78876,14.338904 5.64941,23.719398 3.06745,32.171064 6.32391,64.710371 9.86827,97.620731 3.44835,32.72343 6.80082,65.26547 9.95849,97.5286 0.86636,9.09889 2.39867,17.0983 4.50667,23.99292 4.30897,14.52292 12.83681,25.00021 25.38026,31.43711 0.76755,0.36562 1.5351,0.64179 2.29986,0.91532 12.74096,3.8616 28.06392,5.60831 45.78839,5.33481 37.64433,-0.73661 75.38741,-1.10222 113.02889,-1.10222 37.64716,0 75.39024,0 113.03456,0 37.64431,0 75.38458,0.36561 113.03173,1.10222 10.53705,0.1841 19.44586,-0.82869 26.81946,-2.94091 -3.54145,-5.79244 -6.60887,-12.31873 -9.19664,-19.763 -2.39295,-6.89455 -4.69282,-13.88124 -6.99268,-20.95718 -8.8128,-28.22285 -25.38311,-48.53549 -49.6205,-61.04106 -6.41422,-3.39857 -13.88661,-5.51081 -22.31574,-6.34218 -2.49174,-0.2762 -4.40778,-0.4576 -5.84129,-0.4576 -31.22733,-1.19424 -62.45741,-1.7467 -93.77782,-1.7467 -37.64442,0 -75.38751,0.36836 -113.02896,1.1022 -10.53704,0.18147 -19.44862,-0.83138 -26.82516,-2.94362 -3.25645,-22.61183 -6.03325,-45.86807 -8.33026,-69.76894 -3.06737,-32.815491 -6.3239,-65.90999 -9.86818,-99.275284 -2.39303,-23.5325069 -4.5969,-47.43329 -6.51302,-71.791758 l -245.6024,0 z M 0.4223431,-95.394291 c -1.4675936,-0.403332 7.9411383,9.784378 18.1264729,8.710304 30.651602,-0.641802 61.325113,-0.930873 91.976714,-0.930873 9.57763,0 18.99932,-0.498258 28.48369,-1.692513 32.47463,-3.953719 56.81226,-16.312287 73.19337,-36.811867 8.23725,-10.38789 16.69592,-20.61465 25.22086,-30.63426 17.14601,-19.94714 34.18257,-39.7284 51.23537,-59.49139 5.55355,10.57207 10.41498,21.67554 14.72686,33.25766 0.38099,1.10215 0.75771,2.20295 1.23459,3.21573 11.59243,24.81881 22.77357,50.45817 33.59839,76.83953 7.76028,18.936974 15.44507,38.140159 23.01624,57.629617 l 245.59472,0 c -0.73305,-9.13447 -1.37314,-18.340226 -2.02826,-27.587767 -2.12048,-4.206544 -4.2897,-8.48133 -6.34929,-12.778354 -0.0121,-0.02452 0.0121,-0.0612 0,-0.08448 -6.21117,-12.962078 -12.12506,-26.323794 -17.72516,-40.112254 -10.44111,-25.73959 -20.84899,-51.50349 -31.48197,-77.51654 -10.63582,-26.01577 -21.51571,-51.7993 -32.62836,-77.26263 0.67446,0 1.26841,0 1.94006,0 37.64432,0 75.40858,0 113.05291,0 10.63297,19.21052 21.21723,38.63569 31.65833,58.30663 12.64211,23.80877 25.35484,47.38593 38.09584,70.91576 0.83845,1.53985 1.68462,3.06865 2.64554,4.48513 1.92189,2.83292 4.11601,5.35927 6.52568,7.70087 1.20479,1.17079 2.46572,2.33649 3.79194,3.385 1.32623,1.04851 2.69748,2.03531 4.1447,2.96187 2.89451,1.85317 6.05934,3.45607 9.43576,4.82364 1.68819,0.68376 3.39476,1.29883 5.2029,1.86174 0.67164,0 1.26842,3e-5 1.94007,0 8.33311,0 16.535,3e-5 24.86812,0 0,-0.32088 0.0404,-0.51622 0.0881,-0.67699 0.0483,-0.1608 0.16989,-0.29247 0.26441,-0.3385 5.35145,-1.89597 10.17811,-4.23933 14.5505,-7.02389 2.91492,-1.85639 5.64105,-3.91911 8.11299,-6.17763 3.70789,-3.38775 6.91898,-7.20024 9.61214,-11.50899 0.6688,-3.67746 1.50482,-7.24663 2.55737,-10.832 0.19188,-0.73386 0.25679,-1.47109 0.35274,-2.11563 0.57569,-5.42142 0.34707,-10.83877 -0.70548,-16.07875 -0.90863,-4.22853 -2.10195,-8.32546 -3.52739,-12.18602 -1.42543,-3.86054 -3.11187,-7.50795 -5.02653,-11.00125 -13.12472,-23.90085 -26.43916,-47.5674 -39.94773,-70.91581 -2.96865,-5.05854 -5.938,-10.3161 -8.90665,-15.74024 -6.51576,-11.67148 -13.12896,-23.58463 -19.92977,-35.62713 -0.38375,-0.73658 -0.77032,-1.46368 -1.05821,-2.20026 -2.73021,-6.45726 -5.92269,-12.47835 -9.61214,-18.02514 -1.84476,-2.7734 -3.8233,-5.41 -5.90838,-7.95473 -3.11465,-3.80112 -6.48917,-7.37395 -10.14127,-10.66277 -0.0171,-0.0144 -0.0722,0.0144 -0.0881,0 -4.89281,-4.40053 -10.1906,-8.37051 -16.04963,-11.84747 -2.9295,-1.7384 -5.99959,-3.31719 -9.17123,-4.82365 -1.58577,-0.7532 -3.20377,-1.50514 -4.85015,-2.20022 -6.39624,-2.65757 -13.60938,-4.56948 -21.42891,-5.58527 -0.0285,-0.003 -0.0595,0.003 -0.0881,0 -21.36193,-2.84881 -44.27229,-4.08706 -68.69596,-3.80812 -37.64433,0.45494 -75.40858,0.76163 -113.05291,0.76161 -37.64715,0 -75.40585,0.35611 -113.05297,1.18476 -4.47908,0.11516 -8.79604,0.3983 -12.96316,0.84626 -4.16702,0.44814 -8.13762,1.08047 -11.99314,1.86172 -1.9277,0.39061 -3.8821,0.7955 -5.73201,1.26942 -3.69975,0.94781 -7.19345,2.10405 -10.58217,3.38498 -1.69422,0.64063 -3.40987,1.30697 -5.02653,2.03101 -22.54842,10.13438 -41.25423,23.80846 -56.17372,41.04311 -2.11668,2.44511 -4.20978,4.94211 -6.17293,7.53163 -0.0148,0.019 0.0149,0.0665 0,0.0846 -15.88887,21.03201 -32.58216,41.1264 -50.00078,60.50688 -4.50096,4.96374 -8.91863,10.0846 -13.22773,15.2325 -7.94932,9.37782 -15.55156,19.00945 -22.92804,29.02638 -6.95805,9.49222 -14.89886,18.08774 -23.63353,25.81062 -1.24801,1.10327 -2.51039,2.14713 -3.79194,3.21575 -0.67441,0 -1.26837,4e-5 -1.94006,0 -35.155323,0 -49.702397,1.515 -84.857787,1.51498 -46.288106,10.65997 -69.669685,55.25697 -34.76936379,102.833807 z M 394.50811,-501.24226 c 0.38381,-17.8322 -2.39297,-32.81557 -8.42905,-44.85534 -12.35713,-24.8215 -31.99201,-42.5616 -58.81428,-53.13363 -11.58961,-4.59549 -25.76693,-6.43423 -42.34003,-5.42143 -34.57973,2.11494 -60.25068,13.23669 -77.1116,33.27591 -8.52502,10.11162 -15.03798,21.97 -19.53894,35.57496 -2.3958,7.35224 -4.69288,14.6124 -6.89671,21.69381 -0.28785,11.95041 0.76472,22.88803 3.35242,32.72346 7.37646,28.40423 22.31848,49.8218 44.92202,64.16067 11.59242,7.35493 25.57505,12.22661 41.85743,14.61506 17.5326,2.6647 34.0069,1.47046 49.52454,-3.58539 0.76759,-0.27618 1.53236,-0.45764 2.29708,-0.73386 28.06681,-9.46985 48.37604,-26.28923 60.92516,-50.27946 6.42268,-12.22928 9.87105,-26.93648 10.25196,-44.03476 z"
       inkscape:connector-curvature="0"
       style="fill:#000000"
       sodipodi:nodetypes="cccccccccccccccccccccccccsscccccccscccccccccscccccccccccccccsccccsssscccccssccccscccccsscccsccccsccccccscccccccccccccccccccccccc"
       inkscape:export-filename="C:\Users\alaing\git\diabetes-diary-android\DiabetesDiaryAndroid\res\drawable-hdpi\add_activity.png"
       inkscape:export-xdpi="4.1572423"
       inkscape:export-ydpi="4.1572423" />
    <path
       id="path2824"
       sodipodi:rx="87.234589"
       sodipodi:ry="20.59931"
       style="opacity:0.54584997;fill:#6f6f6f;fill-opacity:1;stroke:#ffffff;filter:url(#filter3654)"
       sodipodi:type="arc"
       d="m 248.13135,353.55865 a 87.234589,20.59931 0 1 1 -174.46918,0 87.234589,20.59931 0 1 1 174.46918,0 z"
       transform="matrix(-3.9954771,0,0,3.6597475,901.87001,-803.72163)"
       sodipodi:cy="353.55865"
       sodipodi:cx="160.89676"
       inkscape:export-filename="C:\Users\alaing\git\diabetes-diary-android\DiabetesDiaryAndroid\res\drawable-hdpi\add_activity.png"
       inkscape:export-xdpi="4.1572423"
       inkscape:export-ydpi="4.1572423" />
    <path
       id="path3658"
       sodipodi:rx="83.594406"
       sodipodi:ry="12.883725"
       style="fill:#6f6f6f;fill-opacity:0.43529412;filter:url(#filter3684)"
       sodipodi:type="arc"
       d="m 244.49117,353.55865 a 83.594406,12.883725 0 1 1 -167.188817,0 83.594406,12.883725 0 1 1 167.188817,0 z"
       transform="matrix(-1.4637717,0,0,1.4311546,497.48224,-9.9766558)"
       sodipodi:cy="353.55865"
       sodipodi:cx="160.89676"
       inkscape:export-filename="C:\Users\alaing\git\diabetes-diary-android\DiabetesDiaryAndroid\res\drawable-hdpi\add_activity.png"
       inkscape:export-xdpi="4.1572423"
       inkscape:export-ydpi="4.1572423" />
    <path
       id="path3688"
       sodipodi:rx="83.594406"
       sodipodi:ry="12.883725"
       style="opacity:0.94332;fill:#6f6f6f;fill-opacity:1;filter:url(#filter3684)"
       sodipodi:type="arc"
       d="m 244.49117,353.55865 a 83.594406,12.883725 0 1 1 -167.188817,0 83.594406,12.883725 0 1 1 167.188817,0 z"
       transform="matrix(-0.83181939,0,0,0.81328399,278.0779,206.33517)"
       sodipodi:cy="353.55865"
       sodipodi:cx="160.89676"
       inkscape:export-filename="C:\Users\alaing\git\diabetes-diary-android\DiabetesDiaryAndroid\res\drawable-hdpi\add_activity.png"
       inkscape:export-xdpi="4.1572423"
       inkscape:export-ydpi="4.1572423" />
    <g
       id="g1370"
       transform="matrix(-8.6493051,0,0,9.4036661,81.524907,-735.54979)"
       style="fill:#46b2e3;fill-opacity:1"
       inkscape:export-filename="C:\Users\alaing\git\diabetes-diary-android\DiabetesDiaryAndroid\res\drawable-hdpi\add_activity.png"
       inkscape:export-xdpi="4.1572423"
       inkscape:export-ydpi="4.1572423">
      <path
         id="path1349"
         style="fill:#46b2e3;fill-opacity:1"
         d="m 14.501,35.392 c 0.05,0.543 0.508,0.956 1.053,0.951 h 12.104 v 12.103 c -0.002,0.28 0.109,0.549 0.307,0.747 0.198,0.198 0.467,0.308 0.746,0.307 h 6.579 c 0.28,10e-4 0.548,-0.109 0.746,-0.307 0.198,-0.198 0.309,-0.467 0.308,-0.747 V 36.343 h 12.103 c 0.28,10e-4 0.549,-0.109 0.747,-0.307 0.197,-0.198 0.308,-0.467 0.307,-0.747 v -6.578 c 0.001,-0.28 -0.11,-0.549 -0.307,-0.747 -0.198,-0.198 -0.467,-0.308 -0.747,-0.307 H 36.344 V 15.554 c 10e-4,-0.28 -0.11,-0.549 -0.308,-0.747 C 35.838,14.609 35.57,14.499 35.29,14.5 h -6.579 c -0.279,-10e-4 -0.548,0.109 -0.746,0.307 -0.198,0.198 -0.309,0.467 -0.307,0.747 V 27.657 H 15.554 c -0.28,-0.001 -0.548,0.109 -0.746,0.307 -0.198,0.198 -0.309,0.467 -0.307,0.747 v 6.578 c -0.002,0.035 -0.002,0.069 0,0.103 z"
         inkscape:connector-curvature="0" />
      <path
         id="path1468"
         style="fill:#46b2e3;fill-opacity:1"
         d="m 15.43,28.874 c -0.087,0.148 -0.129,0.318 -0.123,0.49 v 5.272 c 0.003,0.495 0.404,0.896 0.899,0.899 h 12.26 v 12.259 c 0.002,0.496 0.403,0.897 0.899,0.899 h 5.271 c 0.496,-0.002 0.897,-0.403 0.899,-0.899 V 35.535 h 12.259 c 0.496,-0.003 0.897,-0.404 0.9,-0.899 v -5.272 c -0.003,-0.495 -0.404,-0.896 -0.9,-0.899 H 35.535 V 16.206 C 35.533,15.71 35.132,15.309 34.636,15.307 h -5.271 c -0.496,0.002 -0.897,0.403 -0.899,0.899 v 12.259 h -12.26 c -0.312,-0.007 -0.605,0.148 -0.776,0.409 z"
         inkscape:connector-curvature="0" />
      <path
         id="path1472"
         style="fill:#46b2e3;fill-opacity:1"
         d="m 15.981,29.262 c -0.014,0.032 -0.021,0.067 -0.02,0.102 v 5.272 c 0.002,0.044 0.016,0.086 0.041,0.122 0.022,0.044 0.058,0.08 0.102,0.103 0.032,0.014 0.067,0.021 0.102,0.02 H 28.71 c 0.113,-0.003 0.232,0.028 0.307,0.102 0.074,0.075 0.105,0.194 0.102,0.307 v 12.504 c 0.002,0.044 0.016,0.086 0.041,0.123 0.023,0.044 0.058,0.079 0.102,0.102 0.032,0.014 0.067,0.021 0.102,0.02 h 5.272 c 0.044,-0.002 0.086,-0.016 0.122,-0.041 0.044,-0.022 0.08,-0.058 0.103,-0.102 0.014,-0.032 0.021,-0.067 0.02,-0.102 V 35.29 c -0.003,-0.113 0.028,-0.232 0.102,-0.307 0.075,-0.074 0.194,-0.105 0.307,-0.102 h 12.504 c 0.044,-0.002 0.086,-0.016 0.123,-0.041 0.044,-0.023 0.079,-0.058 0.102,-0.102 0.014,-0.032 0.021,-0.067 0.02,-0.102 V 29.364 C 48.037,29.32 48.023,29.278 47.998,29.242 47.976,29.198 47.94,29.162 47.896,29.139 47.864,29.125 47.829,29.118 47.794,29.119 H 35.29 C 35.177,29.122 35.058,29.091 34.983,29.017 34.909,28.942 34.878,28.823 34.881,28.71 V 16.206 C 34.879,16.162 34.865,16.12 34.84,16.083 34.817,16.039 34.782,16.004 34.738,15.981 34.706,15.967 34.671,15.96 34.636,15.961 h -5.272 c -0.044,0.002 -0.086,0.016 -0.122,0.041 -0.044,0.022 -0.08,0.058 -0.103,0.102 -0.014,0.032 -0.021,0.067 -0.02,0.102 V 28.71 c 0.003,0.113 -0.028,0.232 -0.102,0.307 -0.075,0.074 -0.194,0.105 -0.307,0.102 H 16.206 c -0.044,0.002 -0.086,0.016 -0.123,0.041 -0.044,0.023 -0.079,0.058 -0.102,0.102 z"
         inkscape:connector-curvature="0" />
    </g>
  </g>
</svg>
