<?xml version="1.0" encoding="UTF-8" standalone="no"?>
<!-- Created with Inkscape (http://www.inkscape.org/) -->

<svg
   xmlns:dc="http://purl.org/dc/elements/1.1/"
   xmlns:cc="http://creativecommons.org/ns#"
   xmlns:rdf="http://www.w3.org/1999/02/22-rdf-syntax-ns#"
   xmlns:svg="http://www.w3.org/2000/svg"
   xmlns="http://www.w3.org/2000/svg"
   xmlns:sodipodi="http://sodipodi.sourceforge.net/DTD/sodipodi-0.dtd"
   xmlns:inkscape="http://www.inkscape.org/namespaces/inkscape"
   id="svg2985"
   version="1.1"
   inkscape:version="0.48.5 r10040"
   width="500"
   height="499"
   sodipodi:docname="Untitled.svg"
   inkscape:export-filename="C:\Users\alaing\git\deckard\diabetes-diary-android\DiabetesDiaryAndroid\res\drawable\tail_speech_balloon_pink.png"
   inkscape:export-xdpi="93.07476"
   inkscape:export-ydpi="93.07476">
  <metadata
     id="metadata2991">
    <rdf:RDF>
      <cc:Work
         rdf:about="">
        <dc:format>image/svg+xml</dc:format>
        <dc:type
           rdf:resource="http://purl.org/dc/dcmitype/StillImage" />
        <dc:title></dc:title>
      </cc:Work>
    </rdf:RDF>
  </metadata>
  <defs
     id="defs2989" />
  <sodipodi:namedview
     pagecolor="#ffffff"
     bordercolor="#666666"
     borderopacity="1"
     objecttolerance="10"
     gridtolerance="10"
     guidetolerance="10"
     inkscape:pageopacity="0"
     inkscape:pageshadow="2"
     inkscape:window-width="1920"
     inkscape:window-height="1018"
     id="namedview2987"
     showgrid="false"
     inkscape:zoom="0.94589178"
     inkscape:cx="257.78844"
     inkscape:cy="221.17995"
     inkscape:window-x="-8"
     inkscape:window-y="-8"
     inkscape:window-maximized="1"
     inkscape:current-layer="layer3" />
  <g
     inkscape:groupmode="layer"
     id="layer2"
     inkscape:label="Layer#1">
    <path
       style="fill:#000000;fill-opacity:1;stroke:#edd0e2;stroke-width:7;stroke-miterlimit:4;stroke-opacity:1;stroke-dasharray:none;marker-start:none"
       d="m 183.95483,491.05751 c -9.56522,-2.04511 -23.33517,-6.64982 -30.03536,-10.0439 -18.02427,-9.13047 -34.83431,-26.54489 -43.91897,-45.49802 -6.74631,-14.07471 -11.030781,-37.26331 -11.039771,-59.74999 -0.007,-17.86788 0.005,-17.84768 -11.5923,-19.65845 -10.48899,-1.63776 -25.74093,-5.37423 -33.53025,-8.21436 -8.04793,-2.93442 -12.74157,-7.73012 -17.88276,-18.27159 -13.25391,-27.17579 -21.5442,-77.08454 -22.69142,-136.6056 -0.62882,-32.62474 0.31768,-50.06293 4.23365,-78.00001 4.78118,-34.109684 13.96237,-58.092724 26.61503,-69.523654 6.52859,-5.89818 23.05546,-12.64099 38.84216,-15.84724 38.470311,-7.81324 73.044011,-11.28388 125.188081,-12.56686 102.8385,-2.5303 197.72561,6.3549 235.41236,22.04394 9.71477,4.04426 16.03436,10.72876 21.89403,23.15823 6.13331,13.00989 8.23463,19.84218 12.06717,39.235574 11.39318,57.65158 11.18446,125.44944 -0.56902,184.83377 -3.54683,17.92032 -6.64291,27.91716 -12.43972,40.16625 -5.82762,12.3142 -10.67379,17.53245 -19.8074,21.32818 -17.25928,7.17259 -38.42896,10.71754 -87.24551,14.60963 -60.08242,4.7903 -142.59817,4.82173 -206.38574,0.0786 -19.67671,-1.46313 -22.23856,-1.24084 -23.49708,2.0388 -0.33996,0.88592 -1.10755,6.97429 -1.70576,13.5297 -2.60067,28.49908 3.71433,50.07382 21.08082,72.02109 9.46948,11.96727 27.56004,27.6781 43.53896,37.81163 2.6732,1.69529 4.20976,3.08924 3.41458,3.09766 -1.22474,0.013 -1.21645,0.16352 0.0542,0.98469 2.19086,1.41585 0.21996,1.22702 -10,-0.95808 z m 1.947,-4.2437 c -14.82188,-10.67154 -20.52501,-15.39467 -29.94358,-24.79822 -26.02676,-25.98526 -34.94386,-49.54717 -31.9356,-84.38427 1.05045,-12.16472 2.17617,-15.60556 5.72731,-17.50608 1.16939,-0.62584 8.4024,-0.47617 20.75001,0.42937 64.66989,4.74272 146.82709,4.70603 207.45486,-0.0926 42.54571,-3.36748 63.6892,-6.64285 81.93282,-12.69232 12.18146,-4.0393 16.44492,-8.02134 22.56395,-21.07456 6.03381,-12.87141 8.96697,-22.32149 12.47281,-40.18488 12.25766,-62.45688 11.8797,-134.46415 -1.01562,-193.494674 -5.48206,-25.09505 -15.69008,-44.79265 -25.88575,-49.94965 -15.79936,-7.99136 -44.68642,-14.11181 -89.6553,-18.99575 -102.7476,-11.15909 -240.52743,-5.44122 -291.912901,12.11442 -19.16061,6.54614 -25.45049,11.63346 -32.54366,26.32164 -9.82349,20.34201 -14.89965,44.411224 -18.03376,85.509354 -1.32929,17.43122 -0.70841,67.89317 1.04583,85.00001 3.77388,36.80175 6.87167,54.59828 13.13076,75.43506 6.6985,22.2996 12.79841,32.99146 20.76816,36.4022 6.07236,2.59873 21.35513,6.64044 32.63267,8.6301 4.95,0.87331 10.24532,1.83789 11.76738,2.14351 4.64096,0.93188 5.548241,4.24645 5.638831,20.60028 0.0912,16.46357 1.04938,24.75694 4.54261,39.31764 3.08416,12.85562 5.55891,19.05058 11.61665,29.07955 10.92329,18.08419 28.70122,32.4805 48.58825,39.34607 7.33131,2.53098 20.2173,5.91767 22.79327,5.99052 1.37219,0.0388 0.63411,-0.8902 -2.5,-3.14672 z"
       id="path3843-1-7"
       inkscape:connector-curvature="0" />
  </g>
  <g
     inkscape:groupmode="layer"
     id="layer3"
     inkscape:label="sadf"
     style="display:inline">
    <path
       style="fill:#ffffff;fill-opacity:1;stroke:none"
       d="m 179.13251,480.38208 c -27.37206,-8.02422 -48.02869,-24.73149 -59.99869,-48.52749 -7.12523,-14.16474 -11.42318,-35.02033 -12.41859,-60.26059 -0.44628,-11.31601 -1.13538,-17.63857 -2.08177,-19.1004 -1.12547,-1.73841 -4.40745,-2.7916 -16.05369,-5.15164 C 67.55026,343.08047 55.60775,339.09755 51.33562,334.92075 38.79049,322.65558 27.05977,277.07656 22.68115,223.58552 21.03407,203.46423 21.35334,146.54557 23.21557,128.3096 25.25266,108.36132 29.19504,86.458163 32.70699,75.577046 37.08794,62.003491 44.31716,48.337898 49.78108,43.30143 68.98221,25.602448 130.99004,15.600427 230.93547,14.080767 c 93.3163,-1.41886 179.01077,7.14879 216.1981,21.615273 12.57566,4.892144 19.96564,14.970473 27.38998,37.354011 10.09519,30.435849 15.98227,90.114489 13.44955,136.340919 -3.661,66.81937 -15.0618,112.98846 -31.15783,126.17796 -12.21398,10.00842 -51.24679,16.66938 -121.74526,20.77584 -34.05454,1.98364 -115.56077,1.67819 -159.10929,-0.59626 -20.64199,-1.0781 -38.75185,-1.65373 -40.24412,-1.2792 -3.54052,0.88862 -4.98251,3.8641 -6.24968,12.89588 -2.48787,17.73235 -0.43086,37.75117 5.36687,52.23033 1.76099,4.39783 5.87943,12.04756 9.1521,16.99939 7.05258,10.67116 24.59631,28.57928 37.26102,38.03496 4.94243,3.69009 9.43819,7.11196 9.99058,7.60417 1.76593,1.57352 -2.80604,0.87405 -12.10498,-1.85196 z"
       id="path4099"
       inkscape:connector-curvature="0" />
  </g>
  <path
     style="fill:#000000;fill-opacity:1;stroke:#df99be;stroke-width:7;stroke-miterlimit:4;stroke-opacity:1;stroke-dasharray:none;marker-start:none"
     d="m 187.17158,486.04192 c -9.56522,-2.04511 -23.33517,-6.64982 -30.03536,-10.0439 -18.02427,-9.13047 -34.8343,-26.54489 -43.91896,-45.49802 -6.74632,-14.07471 -11.03079,-37.26331 -11.03978,-59.75 -0.007,-17.86788 0.005,-17.84768 -11.592301,-19.65845 -10.48899,-1.63776 -25.74093,-5.37423 -33.53025,-8.21436 -8.04793,-2.93442 -12.74157,-7.73012 -17.88276,-18.27159 C 25.918259,297.42981 17.627969,247.52106 16.480749,188 c -0.62882,-32.62473 0.31768,-50.06292 4.23365,-78 4.78118,-34.109674 13.96237,-58.092714 26.61503,-69.523644 6.52859,-5.89818 23.05546,-12.64099 38.84216,-15.84724 38.470321,-7.81324 73.044011,-11.28388 125.188081,-12.56686 102.8385,-2.5303004 197.72562,6.3549 235.41237,22.04394 9.71477,4.04426 16.03436,10.72876 21.89403,23.15823 6.13331,13.00989 8.23463,19.84218 12.06717,39.23557 11.39318,57.651574 11.18446,125.449424 -0.56902,184.833754 -3.54683,17.92032 -6.64291,27.91716 -12.43972,40.16625 -5.82762,12.3142 -10.67379,17.53245 -19.8074,21.32818 -17.25928,7.17259 -38.42896,10.71754 -87.24551,14.60963 -60.08243,4.7903 -142.59818,4.82173 -206.38575,0.0786 -19.67671,-1.46313 -22.23856,-1.24084 -23.49708,2.0388 -0.33996,0.88592 -1.10755,6.97429 -1.70576,13.5297 -2.60066,28.49909 3.71433,50.07383 21.08082,72.0211 9.46948,11.96727 27.56004,27.6781 43.53896,37.81163 2.6732,1.69529 4.20976,3.08924 3.41458,3.09766 -1.22474,0.013 -1.21645,0.16352 0.0542,0.98469 2.19086,1.41585 0.21996,1.22702 -10,-0.95808 z m 1.947,-4.2437 C 174.2967,471.12668 168.59357,466.40355 159.175,457 c -26.02676,-25.98526 -34.94385,-49.54717 -31.93559,-84.38428 1.05045,-12.16472 2.17616,-15.60556 5.7273,-17.50608 1.16939,-0.62584 8.4024,-0.47617 20.75001,0.42937 64.66989,4.74272 146.82709,4.70603 207.45487,-0.0926 42.54571,-3.36748 63.6892,-6.64285 81.93282,-12.69232 12.18146,-4.0393 16.44492,-8.02134 22.56395,-21.07456 6.03381,-12.87141 8.96697,-22.32149 12.47281,-40.18488 12.25766,-62.45688 11.8797,-134.46414 -1.01562,-193.494654 -5.48206,-25.09505 -15.69008,-44.79265 -25.88575,-49.94965 -15.79936,-7.99136 -44.68642,-14.11181 -89.6553,-18.99575 -102.74761,-11.1590904 -240.52743,-5.44122 -291.912911,12.11442 -19.16061,6.54614 -25.45049,11.63346 -32.54366,26.32164 -9.82349,20.34201 -14.89965,44.411224 -18.03376,85.509344 -1.32929,17.43122 -0.70841,67.89316 1.04583,85 3.77388,36.80175 6.87167,54.59828 13.13076,75.43506 6.6985,22.2996 12.79841,32.99146 20.76816,36.4022 6.07236,2.59873 21.35513,6.64044 32.63267,8.6301 4.95,0.87331 10.24532,1.83789 11.76738,2.14351 4.640961,0.93188 5.548241,4.24645 5.638831,20.60028 0.0912,16.46357 1.04938,24.75695 4.54261,39.31765 3.08416,12.85562 5.55892,19.05058 11.61666,29.07955 10.92328,18.08419 28.70121,32.4805 48.58824,39.34607 7.33131,2.53098 20.2173,5.91767 22.79327,5.99052 1.37219,0.0388 0.63411,-0.8902 -2.5,-3.14672 z"
     id="path3843"
     inkscape:connector-curvature="0" />
  <g
     inkscape:groupmode="layer"
     id="layer1"
     inkscape:label="Layer" />
</svg>
